<?xml version="1.0" encoding="UTF-8"?>
<!DOCTYPE svg PUBLIC "-//W3C//DTD SVG 1.1//EN" "http://www.w3.org/Graphics/SVG/1.1/DTD/svg11.dtd">
<svg xmlns="http://www.w3.org/2000/svg" version="1.1" width="50px" height="50px" style="shape-rendering:geometricPrecision; text-rendering:geometricPrecision; image-rendering:optimizeQuality; fill-rule:evenodd; clip-rule:evenodd" xmlns:xlink="http://www.w3.org/1999/xlink">
<g><path style="opacity:0.806" fill="#fefffe" d="M 16.5,1.5 C 22.987,0.346018 29.6536,0.179351 36.5,1C 45.5818,4.57274 47.7485,10.7394 43,19.5C 39.2119,22.4931 35.0452,23.4931 30.5,22.5C 38.3156,20.2022 40.8156,15.2022 38,7.5C 34.7164,3.79616 30.5498,2.12949 25.5,2.5C 25.3334,15.5043 25.5001,28.5043 26,41.5C 26.8333,42.3333 27.6667,43.1667 28.5,44C 24.5,44.6667 20.5,44.6667 16.5,44C 17.4162,43.6258 18.2496,43.1258 19,42.5C 19.6667,29.1667 19.6667,15.8333 19,2.5C 18.3292,1.74756 17.4959,1.41423 16.5,1.5 Z"/></g>
<g><path style="opacity:0.84" fill="#fefffe" d="M 3.5,5.5 C 6.56454,4.18162 9.7312,4.18162 13,5.5C 13.3333,18.1667 13.6667,30.8333 14,43.5C 19.4333,47.0648 25.1,47.3981 31,44.5C 31.853,42.0645 32.853,39.7312 34,37.5C 34.7886,41.0915 34.6219,44.5915 33.5,48C 23.5,48.6667 13.5,48.6667 3.5,48C 5.33333,47.5 6.5,46.3333 7,44.5C 7.66667,32.5 7.66667,20.5 7,8.5C 6.57756,6.5743 5.4109,5.5743 3.5,5.5 Z"/></g>
</svg>
